<svg width="500" height="163" viewBox="0 0 500 163" fill="none" xmlns="http://www.w3.org/2000/svg">
<path d="M325.668 0.198242C290.166 0.198242 258.44 18.5996 258.44 52.5976C258.44 91.5866 314.708 94.2793 314.708 113.866C314.708 122.114 305.256 129.497 289.114 129.497C266.204 129.497 249.082 119.181 249.082 119.181L241.755 153.489C241.755 153.489 261.48 162.202 287.668 162.202C326.483 162.202 357.026 142.897 357.026 108.318C357.026 67.1192 300.524 64.506 300.524 46.3264C300.524 39.8649 308.282 32.7863 324.379 32.7863C342.54 32.7863 357.358 40.2888 357.358 40.2888L364.528 7.1537C364.528 7.1537 348.405 0.198242 325.668 0.198242ZM0.85986 2.69924L0 7.70074C0 7.70074 14.9359 10.434 28.3879 15.8869C45.7082 22.1392 46.9424 25.7793 49.8594 37.0846L81.6461 159.623H124.258L189.903 2.69924H147.39L105.209 109.392L87.9965 18.954C86.4179 8.60365 78.4219 2.69924 68.6346 2.69924H0.85986ZM206.999 2.69924L173.648 159.623H214.188L247.421 2.69874H206.999V2.69924ZM433.104 2.69924C423.328 2.69924 418.149 7.93298 414.348 17.0786L354.954 159.623H397.468L405.693 135.865H457.486L462.488 159.623H500L467.275 2.69924H433.104ZM438.633 45.0951L451.235 103.981H417.474L438.633 45.0951Z" fill="#1434CB"/>
</svg>
