<svg width="500" height="242" viewBox="0 0 500 242" fill="none" xmlns="http://www.w3.org/2000/svg">
<path fill-rule="evenodd" clip-rule="evenodd" d="M0 6.95662H53.1595C65.8888 6.95662 78.3829 7.90003 90.7594 9.90443C103.018 11.7912 114.569 17.2111 125.412 25.9343C135.549 34.5399 143.446 45.5 149.104 58.8199C154.879 72.1372 158.062 85.8099 158.532 99.9556C158.768 100.899 158.885 101.96 158.885 103.021V108.206C158.532 122.942 155.467 137.083 149.692 150.873C144.034 164.548 135.663 175.746 124.583 184.582C114.802 191.773 104.427 196.373 93.2315 198.492C82.1512 200.732 70.7181 201.91 59.1673 202.381H0V6.95662ZM38.8988 167.138C40.195 167.138 41.6088 167.138 43.1401 167.258C44.6715 167.378 46.3231 167.378 47.9721 167.378H51.1551C52.2796 167.611 53.4249 167.729 54.5733 167.729H57.7562C59.6431 167.729 61.5272 167.614 63.414 167.493C65.3008 167.493 67.185 167.258 69.1894 167.138C74.8911 166.644 80.5342 165.619 86.0451 164.075C91.4677 162.426 96.2996 159.951 100.306 156.654C106.554 151.351 111.269 144.157 114.449 135.201C117.629 126.245 119.281 116.932 119.401 107.265V106.559V105.381V104.32V103.259C119.29 93.8264 117.658 84.4737 114.569 75.5607C111.504 66.6023 106.907 59.2956 100.896 53.6379C96.6298 49.566 91.3978 46.646 85.6923 45.1526C80.0345 43.6212 74.1416 42.7954 68.0135 42.5602C66.7173 42.325 65.3008 42.2074 64.0046 42.2074H38.8988V167.138ZM268.387 199.203L256.481 185.172C251.308 189.968 245.375 193.872 238.922 196.723C232.533 199.701 225.671 201.536 218.648 202.146C217.949 202.283 217.239 202.362 216.526 202.381H214.407C212.873 202.381 211.459 202.266 209.928 202.146C208.397 202.025 206.98 201.79 205.449 201.675C202.445 201.069 199.49 200.242 196.608 199.2C193.69 198.152 190.886 196.809 188.24 195.192C183.408 191.894 179.637 187.529 176.69 182.224C173.742 176.802 171.973 171.262 171.385 165.604C171.267 164.893 171.267 164.19 171.267 163.599V161.83V160.302C171.385 159.711 171.385 159.123 171.385 158.532C171.385 158.297 171.502 158.177 171.502 158.062C171.62 157.827 171.62 157.707 171.62 157.351C171.62 157.116 171.737 156.76 171.737 156.293C171.855 155.937 171.855 155.587 171.855 155.347C173.386 146.979 176.922 140.028 182.583 134.488C188.24 128.945 194.489 124.11 201.205 119.751C197.091 115.396 193.564 110.522 190.715 105.253C187.888 100.185 186.474 94.7629 186.474 89.3403C186.474 88.2793 186.474 87.2183 186.709 86.0397C186.827 84.9787 186.944 83.8001 187.062 82.8594C187.297 82.0336 187.414 81.3254 187.652 80.6198C187.888 79.794 188.123 79.0885 188.24 78.3802C190.597 70.9532 195.194 65.6509 201.916 62.2327C208.634 58.8146 215.706 57.0453 223.365 57.0453C232.912 57.0453 241.635 59.6404 249.532 64.8251C257.43 69.8922 261.438 77.5544 261.438 87.4562V89.9309C260.848 96.1767 258.488 101.599 254.485 106.078C250.513 110.484 246.175 114.546 241.517 118.22C240.456 118.808 239.395 119.398 238.452 120.221C237.509 120.932 236.565 121.635 235.624 122.226L259.554 150.162C260.848 148.983 262.029 147.802 263.208 146.624C264.386 145.45 265.447 144.269 266.506 142.97C268.98 140.616 271.34 138.141 273.692 135.663C276.052 133.074 278.292 130.596 280.411 128.007L296.326 144.862C294.557 146.746 292.672 148.631 290.903 150.52C289.106 152.417 287.338 154.341 285.601 156.293C283.596 158.177 281.712 160.066 279.943 161.951L274.641 167.608L300.808 199.198H268.387V199.203ZM200.494 169.853C202.028 171.858 203.559 173.507 204.973 174.803C206.504 176.217 208.036 177.163 209.687 177.986C211.221 178.812 212.635 179.52 214.167 179.87C215.698 180.225 217.114 180.461 218.646 180.461C221.691 180.451 224.702 179.81 227.487 178.576C230.134 177.321 232.659 175.822 235.028 174.097C237.033 172.683 239.39 170.679 241.865 168.084L215.107 136.144C214.519 136.5 213.929 136.97 213.221 137.323C212.63 137.673 212.162 138.149 211.689 138.496C208.785 141.011 206.103 143.772 203.674 146.749C201.079 149.812 199.313 152.998 198.252 156.295C198.016 157.121 197.781 157.944 197.661 158.77C197.426 159.596 197.426 160.539 197.426 161.365C197.426 162.899 197.661 164.316 198.252 165.729C198.845 167.138 199.671 168.552 200.494 169.853ZM221.946 108.559C222.182 108.441 222.299 108.323 222.419 108.206C222.655 108.088 222.772 108.088 223.125 107.853C223.243 107.735 223.478 107.618 223.598 107.383C223.716 107.265 223.833 107.265 224.068 107.265C227.016 105.146 229.726 102.903 232.318 100.664C234.793 98.3067 236.442 95.2413 237.268 91.5879V88.8753C237.268 84.9841 235.854 81.8038 233.144 79.4466C230.552 77.0894 227.604 75.6756 224.421 75.2026H221.353C218.996 75.4378 216.639 76.4988 214.517 78.268C212.395 79.9196 211.099 82.5093 210.863 85.9301C210.863 86.0477 210.746 86.2829 210.746 86.5208C210.628 86.756 210.628 86.9912 210.628 87.3466C210.628 87.4642 210.511 87.5818 210.511 87.817C210.393 88.0521 210.393 88.2873 210.393 88.6428C210.393 91.5906 211.219 94.4181 212.868 96.8929C214.519 99.4853 216.286 101.96 218.173 104.317C218.999 105.025 219.587 105.731 220.177 106.439L221.946 108.559ZM500 95.9495V102.43C500 120.112 497.05 136.612 491.157 152.051C485.264 167.491 473.948 179.988 456.857 189.534C451.435 193.067 445.542 195.662 438.943 197.666C432.46 199.551 425.976 200.964 419.495 201.79C417.135 201.91 414.896 202.146 412.776 202.266C410.537 202.266 408.412 202.381 406.293 202.381H402.519C401.226 202.381 400.044 202.266 398.751 202.025C382.956 201.085 367.87 196.723 353.136 189.058C338.52 181.516 326.614 171.264 317.658 158.417C313.179 151.578 309.646 144.151 306.93 136.374C304.262 128.699 302.446 120.754 301.513 112.682C301.393 111.151 301.158 109.382 301.037 107.733C301.037 105.964 300.923 104.197 300.923 102.428C300.923 83.6879 305.752 65.8888 315.539 48.9155C325.32 31.9422 339.111 19.0953 356.907 10.3721C360.653 8.49626 364.559 6.95792 368.578 5.77536C372.587 4.47917 376.59 3.41818 380.834 2.35718C384.765 1.5374 388.741 0.947554 392.74 0.590633C396.749 0.117594 400.638 0 404.411 0H407.239C422.558 0.352775 437.409 4.00881 451.91 10.7249C466.291 17.5613 478.783 26.99 489.272 39.0137L460.986 59.6404C453.204 51.9782 445.071 46.0853 436.348 41.8413C427.659 37.7095 418.154 35.5754 408.532 35.5955C405.264 35.6191 401.999 35.8153 398.751 36.1835C395.266 36.6515 391.805 37.2811 388.379 38.0703C373.878 42.5495 363.038 50.9199 355.608 63.1788C348.301 75.5527 344.645 88.5198 344.645 102.428C344.645 103.371 344.645 104.432 344.766 105.611C344.881 106.672 345.116 107.733 345.236 108.794C345.236 109.382 345.356 109.972 345.471 110.443C345.591 110.913 345.591 111.504 345.591 112.094C345.827 112.565 345.947 113.038 346.062 113.626C346.182 114.216 346.182 114.804 346.182 115.157C348.772 130.361 355.255 142.388 365.865 150.99C376.473 159.593 387.903 164.896 400.28 166.665C401.929 167.135 403.818 167.376 405.702 167.491C407.586 167.611 409.355 167.611 411.004 167.611C422.79 167.611 433.162 164.428 442.474 158.18C451.67 151.816 456.264 142.861 456.264 131.072L456.855 129.773H408.765V95.9495H500ZM136.022 219.947H143.446C148.633 219.947 152.995 224.541 152.995 230.319C152.995 235.977 148.633 240.571 143.446 240.692H136.022V219.947ZM139.205 222.419V238.214H142.623C147.34 238.094 149.694 234.326 149.694 230.432C149.694 226.428 147.337 223.125 143.446 222.54L139.205 222.419ZM165.489 219.472C171.852 219.472 176.922 224.306 176.922 230.319C176.922 236.333 171.855 241.162 165.489 241.162C159.243 241.162 154.056 236.333 154.056 230.319C154.056 224.306 159.241 219.472 165.489 219.472ZM165.489 222.067C170.086 222.067 173.857 225.72 173.857 230.319C173.857 234.799 170.086 238.452 165.489 238.452C161.01 238.452 157.239 234.799 157.239 230.319C157.244 228.133 158.114 226.037 159.661 224.49C161.207 222.944 163.302 222.072 165.489 222.067ZM177.866 219.947H180.931V238.217H186.824V240.692H177.866V219.947ZM196.723 219.357C199.08 219.357 201.32 220.062 203.207 221.241V225.014C202.422 224.054 201.432 223.28 200.311 222.751C199.189 222.221 197.963 221.948 196.723 221.952C192.126 221.952 188.473 225.72 188.473 230.319C188.479 232.506 189.35 234.601 190.896 236.147C192.442 237.693 194.537 238.565 196.723 238.572C199.315 238.572 201.672 237.394 203.207 235.51V239.398C201.263 240.618 199.017 241.27 196.723 241.282C190.477 241.282 185.29 236.333 185.29 230.319C185.29 224.306 190.477 219.357 196.723 219.357ZM207.333 238.217H214.76V240.692H204.153V219.947H214.76V222.302H207.333V228.435H214.76V230.91H207.333V238.217ZM226.426 239.275C226.083 239.616 225.684 239.896 225.247 240.101C224.894 240.336 224.421 240.456 223.951 240.571C223.833 240.571 223.716 240.571 223.598 240.692H223.245C222.892 240.692 222.655 240.571 222.302 240.571C221.965 240.463 221.647 240.304 221.358 240.101C221.123 239.866 220.888 239.51 220.653 239.155L220.3 238.097V237.982V237.861V237.746V237.506H220.418V237.391V237.271C220.535 236.68 220.77 236.212 221.243 235.742L222.657 234.678L221.949 233.62C221.714 233.385 221.596 232.914 221.596 232.562V232.441V232.206V232.091C221.714 232.091 221.714 231.971 221.714 231.971C221.832 231.518 222.078 231.109 222.422 230.792C222.892 230.557 223.248 230.437 223.718 230.437H224.071C224.541 230.437 225.132 230.678 225.602 231.028C225.802 231.229 225.957 231.469 226.059 231.733C226.16 231.997 226.206 232.279 226.193 232.562C226.193 233.152 226.075 233.62 225.72 233.975C225.25 234.446 224.894 234.801 224.424 235.034L226.663 237.749C226.781 237.509 227.016 237.273 227.254 236.918C227.489 236.683 227.607 236.448 227.842 236.212L228.55 236.918C228.433 237.158 228.197 237.394 228.08 237.629C227.962 237.864 227.727 238.099 227.492 238.334L227.374 238.455C227.374 238.455 227.374 238.575 227.257 238.575L228.906 240.459H227.492L226.426 239.275ZM223.716 239.631C224.097 239.621 224.466 239.497 224.777 239.275C225.012 239.04 225.365 238.805 225.602 238.57H225.72L225.838 238.449L223.245 235.504C223.245 235.619 223.245 235.619 223.128 235.619L223.01 235.739C222.775 235.854 222.657 235.975 222.422 236.089C222.184 236.33 222.067 236.445 221.949 236.68C221.831 236.68 221.831 236.8 221.831 236.915C221.714 237.036 221.714 237.156 221.714 237.271C221.596 237.391 221.596 237.506 221.596 237.506V237.861C221.596 238.332 221.714 238.687 222.067 239.155C222.462 239.485 222.966 239.654 223.48 239.631H223.716ZM222.772 232.324V232.559C222.772 232.794 222.772 233.029 222.89 233.265C223.007 233.505 223.243 233.74 223.36 233.855L223.595 234.096L223.713 234.211H223.831C223.831 234.211 223.948 234.211 223.948 234.096C224.183 233.975 224.418 233.855 224.656 233.62C224.881 233.389 225.043 233.105 225.127 232.794V232.679V232.559C225.131 232.404 225.102 232.25 225.041 232.107C224.98 231.965 224.889 231.837 224.774 231.733C224.559 231.602 224.317 231.521 224.066 231.498H223.948H223.831C223.595 231.498 223.357 231.498 223.122 231.733C223.015 231.789 222.925 231.874 222.863 231.978C222.801 232.083 222.77 232.203 222.772 232.324ZM245.521 219.236C247.466 219.242 249.382 219.717 251.105 220.62C252.828 221.522 254.308 222.827 255.42 224.424L252.71 225.838C251.952 224.649 250.907 223.669 249.671 222.99C248.435 222.31 247.049 221.952 245.638 221.949C240.924 221.949 237.271 225.717 237.271 230.317C237.271 234.916 240.924 238.57 245.638 238.57C249.53 238.57 252.592 236.68 252.83 232.677H246.109V230.197H256.128V230.317C256.128 236.8 252.59 241.394 245.518 241.394C238.447 241.394 233.967 236.445 233.967 230.317C233.967 224.189 239.158 219.236 245.521 219.236ZM254.362 240.689L262.97 219.945H264.969L273.577 240.689H270.279L267.919 234.796H260.022L257.662 240.689H254.362ZM261.198 232.204L264.028 224.782L266.738 232.204H261.198ZM303.75 240.689L312.233 219.945H314.237L322.845 240.689H319.542L317.188 234.796H309.29L306.93 240.689H303.75ZM310.469 232.204L313.299 224.782L316.124 232.204H310.469ZM344.768 240.689L353.371 219.945H355.376L363.978 240.689H360.681L358.206 234.796H350.429L348.069 240.689H344.768ZM351.602 232.204L354.317 224.782L357.147 232.204H351.602ZM280.999 222.302C283.123 222.542 283.829 223.365 283.829 225.485C283.829 227.489 282.415 228.548 280.651 228.548H277.936V222.299H280.999V222.302ZM281.237 231.022H281.352C282.886 231.022 285.596 231.378 285.596 234.796C285.596 237.506 283.236 238.214 280.996 238.214H281.472H277.933V231.022H281.237ZM277.228 240.689H282.533C286.186 240.689 288.896 238.214 288.896 234.796C288.896 232.086 287.247 230.082 284.893 229.258C286.186 228.433 286.892 226.899 286.892 225.014C286.892 221.952 284.893 219.947 281.71 219.947C280.061 219.827 278.292 219.947 276.643 219.947H276.522H274.758V240.692H277.228V240.689ZM296.794 222.302C298.798 222.542 299.509 223.365 299.624 225.485C299.624 227.489 298.21 228.548 296.441 228.548H293.731V222.299H296.794V222.302ZM296.914 231.022H297.029C298.563 231.022 301.273 231.378 301.273 234.796C301.273 237.506 298.918 238.214 296.679 238.214H297.264H293.731V231.022H296.914ZM292.905 240.689H298.33C301.984 240.689 304.579 238.214 304.579 234.796C304.579 232.086 302.924 230.082 300.57 229.258C301.984 228.433 302.689 226.899 302.689 225.014C302.689 221.952 300.57 219.947 297.507 219.947C295.738 219.827 294.089 219.947 292.32 219.947H290.436V240.692H292.905V240.689ZM324.259 219.947H326.258L340.759 235.266V219.947H343.59V240.692H341.465L327.204 225.488V240.692H324.259V219.947Z" fill="black"/>
</svg>
