<svg width="500" height="205" viewBox="0 0 500 205" fill="none" xmlns="http://www.w3.org/2000/svg">
<path d="M441.139 12.5131C442.391 12.4249 443.504 12.1673 444.483 11.7387C445.457 11.3154 446.242 10.6627 446.817 9.76844C447.401 8.88296 447.692 7.64118 447.692 6.05721C447.692 4.71841 447.425 3.64773 446.914 2.84869C446.41 2.07329 445.714 1.44135 444.894 1.01424C444.003 0.567472 443.042 0.275787 442.053 0.151695C441.592 0.0811391 441.135 0.0370417 440.682 0H430.649V12.6471H437.154C438.56 12.6471 439.887 12.6048 441.139 12.5131ZM417.595 35.74C420.129 38.3664 423.124 40.4249 426.576 41.9242C430.025 43.4217 433.766 44.1661 437.791 44.1661C441.769 44.1661 445.459 43.42 448.881 41.9242C452.237 40.4711 455.274 38.3695 457.817 35.74C460.348 33.1171 462.336 30.0144 463.773 26.4425C465.205 22.8653 465.929 18.9724 465.929 14.755C465.929 10.668 465.205 6.8492 463.773 3.30553C463.305 2.17185 462.768 1.06793 462.165 0L452.416 0C453.41 1.68981 453.922 3.79237 453.922 6.32885C453.922 9.93248 452.915 12.5783 450.895 14.2505C448.881 15.9315 446.381 16.9263 443.383 17.2332L454.839 34.9145H448.145L437.248 17.6901H430.651V34.9145H424.426V0H413.247C412.644 1.06842 412.108 2.17295 411.641 3.3073C410.209 6.84919 409.488 10.668 409.488 14.7567C409.488 18.976 410.207 22.8689 411.641 26.4443C413.074 30.0144 415.062 33.1171 417.595 35.74ZM176.172 68.5237C167.489 68.5237 162.888 75.3059 162.791 82.2486H190.705C190.705 74.0641 185.526 68.5237 176.172 68.5237ZM468.765 0C468.975 0.432154 469.208 0.844905 469.404 1.28941C471.233 5.44514 472.153 9.93424 472.153 14.755C472.153 19.7133 471.234 24.2729 469.404 28.4622C467.574 32.6338 465.103 36.2709 461.983 39.3542C458.858 42.4462 455.154 44.8912 451.082 46.5491C446.93 48.2583 442.501 49.1156 437.789 49.1156C433.089 49.1156 428.644 48.2601 424.467 46.5491C420.365 44.8942 416.628 42.4496 413.469 39.3542C410.324 36.2692 407.837 32.632 406.007 28.4622C404.175 24.2729 403.254 19.7133 403.254 14.755C403.254 9.93424 404.173 5.44514 406.007 1.28941C406.203 0.844905 406.438 0.432154 406.648 0H0L48.0784 204.943C149.021 140.027 246.035 202.412 249.937 204.791H249.947C249.956 204.785 249.966 204.779 249.977 204.774H250.026C250.034 204.779 250.048 204.784 250.055 204.791H250.071C253.965 202.412 350.985 140.027 451.925 204.943L500 0H468.765ZM132.117 124.423H66.4V55.9736H95.9452V105.798H132.117V124.423ZM220.508 96.0246H162.843C162.843 104.934 170.385 111.654 180.437 111.654C186.415 111.654 191.86 109.677 195.707 104.327H218.703C211.187 121.597 196.609 126.508 176.733 126.508C150.885 126.508 132.609 112.512 132.609 90.3413C132.609 66.6628 150.612 54.1709 176.733 54.1709C205.957 54.1709 220.61 73.1081 220.61 91.3361C220.608 92.8566 220.726 94.3753 220.508 96.0246ZM274 124.533H249.1L211.925 55.9172H245.474L266.806 97.6262L267.394 98.8838L267.928 97.6262L287.88 55.9154H308.025L274 124.533ZM339.659 124.399H311.161V55.7884H339.659V124.399ZM361.067 64.3874L352.482 73.7254H348.912L352.847 63.5442H344.982V49.9675H361.067V64.3874ZM398.467 126.353C368.015 126.353 362.473 108.76 362.473 104.401H384.523C384.523 106.962 387.993 110.033 390.921 111.282C393.33 112.314 396.015 112.517 398.527 112.517C404.736 112.517 409.83 111.011 409.83 107.405C409.83 103.015 404.614 102.041 398.86 101.216C383.202 98.9579 361.258 96.3279 361.258 78.8125C361.258 62.4753 379.096 54.1603 398.033 54.1603C428.349 54.1603 436.385 70.9543 436.385 75.8174H413.975C413.975 74.3657 412.869 71.5788 409.814 69.9842C407.547 68.8006 404.215 67.8428 400.995 67.8428C392.621 67.8428 387.91 69.5856 387.91 73.422C387.91 76.5565 392.157 78.1105 398.255 79.1564C414.171 81.8887 438.611 82.8342 438.611 102.203C438.61 112.042 430.09 126.353 398.467 126.353Z" fill="black"/>
</svg>
