<svg width="387" height="400" viewBox="0 0 387 400" fill="none" xmlns="http://www.w3.org/2000/svg">
<path d="M77.1556 56V74.0741C70.6519 79.8519 55.1111 83.2889 43.5407 83.2889C31.9852 83.2889 0 76.0593 0 42.0889C0 8.11852 30.4444 0.8 42.7259 0.8C55.0222 0.8 68.1185 3.05185 75.7037 8.11852V24.0148C75.7037 26 72.9926 25.8222 72.9926 24.0148C72.8148 21.3037 65.5852 5.05185 47.5111 5.40741C28 5.80741 14.8148 21.1407 14.8148 41.363C14.8148 61.5852 27.6296 78.9481 46.9778 78.4C53.2593 78.2222 59.8074 76.237 62.9778 73.6L63.0519 56C63.0519 50.9481 59.9852 49.1407 56.9185 49.1407C54.9185 49.1407 54.9185 46.2519 56.9185 46.2519H83.2889C85.2741 46.2519 85.2741 49.3185 83.2889 49.1407C80.237 49.1407 77.1556 50.9481 77.1556 56ZM254.948 24.0296C254.948 26.0148 252.963 25.837 252.963 24.0296C252.77 21.3185 245.556 4.51852 227.481 4.88889C207.97 5.27407 194.77 21.1556 194.77 41.3778C194.77 61.6 207.422 79.4963 226.756 78.963C246.089 78.4148 255.304 59.2741 256.03 56.7407C256.756 54.2074 258.015 54.5778 258.015 56.563V71.3778C250.074 77.1556 235.067 83.3037 223.511 83.3037C211.956 83.3037 179.97 76.0741 179.97 42.1037C179.97 8.11852 210.326 0 222.607 0C234.904 0 247.363 3.06667 254.963 8.11852L254.948 24.0296ZM384.326 1.98519C387.215 1.98519 387.215 4.6963 384.326 4.6963C381.244 4.6963 378.178 6.5037 378.178 11.5556V71.7185C378.178 76.7704 381.244 78.5778 384.326 78.5778C387.215 78.5778 387.215 82.1926 384.326 82.1926H357.763C354.874 82.1926 354.874 78.5778 357.763 78.5778C360.844 78.5778 363.911 76.7704 363.911 71.7185V11.5556C363.911 6.48889 360.844 4.6963 357.763 4.6963C354.874 4.6963 354.874 1.98519 357.763 1.98519H384.326ZM173.096 1.98519C175.985 1.98519 175.985 4.6963 173.096 4.6963C170.03 4.6963 166.963 6.5037 166.963 11.5556L166.607 51.037C166.607 69.9407 151.274 83.837 132.356 83.837C113.437 83.837 98.6667 69.9407 98.6667 51.037V11.5556C98.6667 6.48889 95.5852 4.6963 92.5185 4.6963C89.6296 4.6963 89.6296 1.98519 92.5185 1.98519H119.259C122.148 1.98519 122.148 4.6963 119.259 4.6963C116.178 4.6963 113.111 6.5037 113.111 11.5556L113.081 55.6444C113.081 68.9778 123.985 79.7926 137.319 79.7926C150.652 79.7926 161.467 66.2667 161.467 52.9481L160.815 11.5556C160.815 6.48889 157.748 4.6963 154.667 4.6963C151.793 4.6963 151.793 1.98519 154.667 1.98519H173.096ZM197.822 178.993C213.9 171.052 231.595 166.935 249.526 166.963C267.081 166.966 284.409 170.936 300.214 178.577C316.02 186.217 329.894 197.33 340.802 211.085C351.709 224.84 359.368 240.883 363.205 258.013C367.042 275.144 366.959 292.92 362.961 310.014C358.964 327.108 351.155 343.078 340.119 356.731C329.083 370.383 315.105 381.365 299.228 388.857C283.352 396.349 265.988 400.156 248.433 399.995C230.879 399.834 213.588 395.708 197.852 387.926C182.118 395.696 164.833 399.812 147.286 399.966C129.739 400.12 112.384 396.308 96.5165 388.815C80.649 381.323 66.6791 370.342 55.6497 356.694C44.6203 343.046 36.8163 327.083 32.8205 309.996C28.8246 292.91 28.7401 275.141 32.5733 258.017C36.4064 240.893 44.0582 224.857 54.9573 211.104C65.8564 197.352 79.7212 186.239 95.5167 178.596C111.312 170.952 128.63 166.976 146.178 166.963C164.756 166.963 182.237 171.289 197.822 178.993ZM221.319 194.296C239.367 209.38 252.36 229.633 258.548 252.326H234.4C227.619 233.165 214.778 216.735 197.822 205.526C180.899 216.743 168.082 233.158 161.304 252.296L137.17 252.311C143.436 229.59 156.467 209.314 174.533 194.178C165.346 191.336 155.78 189.907 146.163 189.941C132.693 189.954 119.384 192.877 107.148 198.51C94.9122 204.143 84.0378 212.354 75.269 222.579C66.5002 232.804 60.0442 244.804 56.3426 257.755C52.641 270.707 51.7813 284.306 53.8224 297.621C55.8634 310.936 60.757 323.652 68.1682 334.901C75.5795 346.149 85.3334 355.663 96.7625 362.792C108.192 369.922 121.026 374.498 134.388 376.207C147.749 377.916 161.322 376.719 174.178 372.696C162.413 362.758 152.746 350.576 145.741 336.86C138.736 323.145 134.533 308.172 133.378 292.815H188.815V316.059L161.852 316.044C168.773 334.597 181.391 350.483 197.896 361.422C214.402 350.501 227.001 334.607 233.867 316.044L206.904 316.059V292.815H262.341C261.117 308.177 256.845 323.141 249.774 336.834C242.702 350.526 232.974 362.672 221.156 372.563C235.165 377.021 250.029 378.114 264.54 375.751C279.051 373.389 292.8 367.638 304.672 358.966C316.544 350.294 326.204 338.945 332.868 325.84C339.532 312.735 343.011 298.243 343.025 283.541C343.038 268.839 339.585 254.341 332.945 241.224C326.305 228.106 316.666 216.74 304.81 208.046C292.954 199.352 279.215 193.576 264.708 191.187C250.202 188.798 235.336 189.863 221.319 194.296ZM343.304 24.0296C343.304 26.0148 341.319 25.837 341.319 24.0296C341.141 21.3185 333.911 4.51852 315.837 4.88889C296.326 5.27407 283.126 21.1556 283.126 41.3778C283.126 61.6 295.778 79.4963 315.111 78.963C334.444 78.4296 343.659 59.2741 344.385 56.7407C345.111 54.2074 346.385 54.5778 346.385 56.563V71.3778C338.43 77.1556 323.437 83.3037 311.867 83.3037C300.311 83.3037 268.326 76.0741 268.326 42.1037C268.326 8.11852 298.681 0 310.978 0C323.259 0 335.733 3.06667 343.319 8.11852L343.304 24.0296Z" fill="black"/>
</svg>
