<svg width="605" height="400" viewBox="0 0 605 400" fill="none" xmlns="http://www.w3.org/2000/svg">
<path d="M43.2146 399.969C42.9578 399.939 42.0874 399.849 41.2804 399.768C33.9133 399.028 26.049 396.016 19.867 391.565C10.5983 384.892 4.06676 375.176 1.34239 364.008C-0.105364 358.073 -0.393102 351.424 0.532807 345.308C3.01546 328.908 13.8525 314.861 28.8857 308.556C32.6375 306.982 36.3608 305.987 40.7468 305.386C43.1781 305.053 49.0992 305.051 51.5519 305.383C56.7535 306.087 61.1623 307.399 65.692 309.59C70.6763 312.002 74.1257 314.485 78.3008 318.667C81.9509 322.323 84.2047 325.366 86.8178 330.167L87.3737 331.188L85.4037 332.645C82.6899 334.653 76.324 339.195 74.2508 340.603L72.538 341.766L71.8335 340.235C70.9624 338.342 70.3422 337.22 69.338 335.72C65.3255 329.728 58.9268 325.448 51.9521 324.091C48.2616 323.373 43.7181 323.453 40.0798 324.3C36.2593 325.189 32.1105 327.184 28.9412 329.657C27.6636 330.653 25.3124 332.985 24.2779 334.281C18.6959 341.276 16.6398 350.187 18.5542 359.088C19.2171 362.169 20.9327 366.196 22.7225 368.87C27.4594 375.947 34.7202 380.481 42.9444 381.497C44.3983 381.677 47.9005 381.677 49.3544 381.497C56.6377 380.597 63.3675 376.813 67.9661 371.032C69.3203 369.33 70.2641 367.856 71.3405 365.763C71.8121 364.846 72.2374 364.096 72.2856 364.096C72.3337 364.096 75.6869 366.462 79.7371 369.354L87.1012 374.613L86.355 376.024C84.8064 378.953 82.1423 382.635 79.661 385.275C75.4336 389.773 71.316 392.83 65.9587 395.447C61.3316 397.707 56.4285 399.149 51.2183 399.782C50.0502 399.924 44.0452 400.064 43.2146 399.969ZM106.178 352.09V306.001H124.053V339.084H170.742V306.001H188.617V398.179H170.742V357.626H124.053V398.179H106.178V352.09ZM206.677 390.008C208.669 385.514 217.862 364.775 227.105 343.92L243.91 306.002L256.45 306.003L268.989 306.004L289.304 351.525C300.477 376.561 309.733 397.3 309.874 397.612L310.129 398.179H288.725L284.593 389.042L280.461 379.905L256.543 379.937L232.624 379.97L228.538 389.074L224.452 398.179H203.054L206.677 390.008ZM272.901 361.309C272.825 360.983 256.586 324.684 256.516 324.685C256.467 324.686 241.044 360.68 240.798 361.37C240.77 361.447 246.937 361.495 256.849 361.495C270.539 361.495 272.937 361.467 272.901 361.309ZM324.549 352.09V306.001L337.122 306.004L349.694 306.007L369.37 333.642L389.046 361.277L389.08 333.639L389.114 306.001H407.122V398.181L399.896 398.147L392.67 398.112L367.714 363.467C353.988 344.413 342.713 328.82 342.658 328.817C342.602 328.815 342.557 344.42 342.557 363.496V398.179H324.549V352.09ZM439.67 352.09V306.001H504.101V324.544H457.679V342.952H500.633V361.495H457.679V379.903H510.771V398.179H439.67V352.09ZM535.983 352.09V306.001H553.992V379.903H604.149V398.179H535.983V352.09ZM227.374 282.558C208.133 281.668 186.707 275.826 169.434 266.76C156.174 259.8 145.664 252.012 134.654 240.985C126.03 232.348 119.668 224.393 114.283 215.512L111.926 211.624L115.27 209.85C121.787 206.394 151.496 191.181 151.729 191.181C151.859 191.181 153.087 192.852 154.457 194.894C169.939 217.969 194.16 232.981 222.504 237.066C227.459 237.781 242.359 237.667 247.755 236.873C253.759 235.991 260.96 234.353 265.535 232.831C265.832 232.732 265.264 231.808 263.955 230.266C253.824 218.323 244.588 201.932 239.392 186.672C229.993 159.069 229.324 129.439 237.471 101.599C242.53 84.3106 251.237 67.5304 262.263 53.8174C263.906 51.7745 265.25 49.9719 265.25 49.8119C265.25 49.2678 256.643 46.9767 251.001 46.0192C242.286 44.5399 228.641 44.3565 220.764 45.6127C207.51 47.7265 194.058 52.6904 183.545 59.3458C171.831 66.7627 162.062 76.294 154.267 87.9132L150.825 93.0435L146.443 90.7433C144.034 89.4783 135.082 84.8392 126.551 80.4345C118.02 76.0299 111.013 72.4026 110.981 72.374C110.845 72.2544 116.186 63.7595 118.384 60.5985C125.059 51.001 136.912 38.2904 145.669 31.3391C168.568 13.1624 194.024 2.92555 222.684 0.368995C228.001 -0.105365 241.183 -0.1095 246.312 0.361391C264.507 2.03179 280.104 6.44363 296.218 14.4772L303.919 18.3166L306.499 16.8486C310.665 14.478 318.066 11.0576 323.688 8.90507C339.46 2.86605 355.345 -0.00851845 372.895 1.89597e-05C385.15 0.00602182 395.374 1.2102 406.473 3.95484C431.548 10.1554 452.932 22.0472 471.356 40.037C481.345 49.7899 489.173 59.7479 495.493 70.7416L496.451 72.4079L480.862 80.45C472.288 84.8733 463.319 89.517 460.931 90.7692L456.589 93.0463L453.306 88.095C437.111 63.6649 410.621 47.7604 381.625 45.0587C373.041 44.2589 360.294 44.9954 352.546 46.739C348.558 47.6363 342.085 49.4859 342.087 49.7273C342.088 49.8535 343.147 51.2554 344.44 52.8427C361.057 73.231 371.432 98.0837 374.784 125.529C375.584 132.08 375.691 148.804 374.974 155.289C371.946 182.675 361.591 207.948 345.062 228.293C341.315 232.906 341.475 232.587 342.677 233.051C343.244 233.27 345.9 234.005 348.578 234.683C362.191 238.133 376.844 238.62 390.603 236.081C415.627 231.463 438.165 216.664 452.661 195.33C454.009 193.346 455.226 191.589 455.366 191.427C455.506 191.264 458.847 192.748 462.791 194.726C470.605 198.642 495.078 211.307 495.341 211.569C495.778 212.006 487.978 223.585 483.195 229.599C478.666 235.292 466.796 247.149 461.125 251.643C440.63 267.885 417.63 277.815 392.297 281.361C363.209 285.432 332.404 279.98 307.34 266.325L303.798 264.395L299.404 266.72C277.635 278.238 252.665 283.728 227.374 282.558ZM308.639 202.544C320.77 187.528 328.339 169.312 330.205 150.646C330.831 144.381 330.459 131.619 329.484 125.915C326.801 110.217 321.06 96.7624 311.799 84.4674C310.055 82.1523 307.515 79.0571 306.155 77.5897L303.682 74.9214L301.388 77.4092C298.363 80.6885 293.324 87.3789 290.783 91.4863C277.885 112.343 273.674 137.966 279.136 162.353C282.573 177.7 290.476 193.16 301.126 205.371L303.578 208.183L304.652 207.167C305.242 206.609 307.036 204.528 308.639 202.544Z" fill="black"/>
</svg>
