<svg width="869" height="140" viewBox="0 0 869 140" fill="none" xmlns="http://www.w3.org/2000/svg">
<path fill-rule="evenodd" clip-rule="evenodd" d="M69.891 127.843C39.5022 127.843 13.5634 100.28 13.5634 70.2158C13.5634 40.2632 38.9593 12.1527 69.6729 12.1527C89.8625 12.1527 104.4 21.9204 116.233 37.2238H131.1C126.65 29.1916 121.875 21.8137 114.604 16.0598C102.122 5.96731 85.9508 0 69.891 0C31.3632 0 0 31.7994 0 70.1091C0 108.525 31.7994 140 70.1091 140C85.7373 140 101.041 134.251 113.305 124.59C121.012 118.404 126.437 110.372 131.648 102.122H116.78C105.055 117.425 90.0806 127.843 69.891 127.843ZM224.002 54.5875C214.67 42.5415 201.97 34.9455 186.235 34.9455C158.018 34.9455 134.794 57.8496 134.794 86.0668C134.794 114.279 158.129 137.397 186.235 137.397C202.624 137.397 214.016 130.557 224.002 117.968V135.114H236.266V37.3305H224.002V54.5875ZM185.586 126.107C163.985 126.107 146.946 107.333 146.946 86.1735C146.946 65.1162 163.879 46.2352 185.586 46.2352C207.181 46.2352 224.002 65.1208 224.002 86.1735C224.002 107.333 207.07 126.107 185.586 126.107ZM251.133 135.114H264.27V2.81662H251.133V135.114ZM313.864 119.592L280.654 37.3305H267.629L307.461 135.114H320.699L360.424 37.3305H347.617L313.864 119.592ZM365.849 135.114H378.981V37.3305H365.849V135.114ZM365.849 24.7416H378.981V2.81662H365.849V24.7416ZM435.526 34.9408C423.151 34.9408 414.362 41.4557 406.223 50.1376V37.3305H394.066V135.114H406.98V75.5288C406.873 59.7938 419.893 46.2305 435.74 46.2305C455.595 46.2305 465.581 63.4874 465.581 81.2873V135.119H477.734V81.2873C477.738 55.8914 462.876 34.9408 435.526 34.9408ZM599.618 2.81662L539.927 78.6795V2.81662H527.013V135.114H539.927V98.7577L556.859 77.7051L599.943 135.114H616.337L565.104 67.2832L616.337 2.81662H599.618ZM621.107 135.114H633.919V2.81662H621.107V135.114ZM739.948 61.9655C731.048 45.3581 713.248 34.9408 694.469 34.9408C666.475 34.9408 642.809 58.2765 642.809 86.2756C642.809 114.488 666.688 137.392 694.696 137.392C708.037 137.392 721.178 132.075 730.83 122.85C736.695 117.314 740.166 110.368 743.307 103.096H729.53C722.579 116.664 710.315 126.103 694.464 126.103C684.813 126.103 675.37 122.195 668.21 115.574C660.823 108.85 657.57 100.595 656.155 90.8322H746.351C746.356 80.6331 744.941 70.8654 739.948 61.9655ZM656.595 79.5472C660.512 61.2091 674.938 46.2305 694.696 46.2305C711.299 46.2305 729.099 56.4343 733.006 79.5472H656.595ZM755.905 135.114H768.815V37.3305H755.905V135.114ZM755.905 25.1778H768.815V2.81662H755.905V25.1778ZM825.583 34.9408C812.985 34.9408 804.196 41.4557 795.946 50.1376V37.3305H783.575V135.114H796.6V75.5288C796.493 59.6871 809.843 46.2305 825.792 46.2305C845.55 46.2305 855.972 63.4874 855.972 81.2873V135.119H868.124V81.2873C868.124 55.8914 853.034 34.9408 825.583 34.9408Z" fill="black"/>
</svg>
