<svg width="500" height="133" viewBox="0 0 500 133" fill="none" xmlns="http://www.w3.org/2000/svg">
<path d="M186.998 32.7695H159.34C158.424 32.769 157.538 33.0954 156.842 33.6901C156.146 34.2848 155.685 35.1086 155.542 36.013L144.356 106.937C144.304 107.266 144.325 107.603 144.416 107.923C144.507 108.244 144.666 108.541 144.883 108.793C145.1 109.046 145.369 109.249 145.672 109.388C145.974 109.527 146.304 109.599 146.637 109.598H159.841C160.757 109.599 161.644 109.272 162.34 108.676C163.036 108.081 163.497 107.256 163.639 106.351L166.656 87.2215C166.798 86.317 167.258 85.4928 167.953 84.8974C168.649 84.302 169.534 83.9745 170.449 83.974H179.205C197.425 83.974 207.94 75.1575 210.686 57.6863C211.923 50.0426 210.738 44.0369 207.159 39.8308C203.228 35.2123 196.256 32.7695 186.998 32.7695ZM190.189 58.6731C188.677 68.5977 181.094 68.5977 173.762 68.5977H169.588L172.516 50.0628C172.602 49.5205 172.878 49.0267 173.296 48.6701C173.713 48.3135 174.244 48.1175 174.793 48.1175H176.706C181.701 48.1175 186.412 48.1175 188.847 50.9647C190.299 52.6633 190.743 55.1869 190.189 58.6731ZM269.675 58.3536H256.43C255.881 58.3536 255.35 58.5495 254.933 58.9061C254.516 59.2627 254.239 59.7566 254.154 60.2988L253.567 64.0034L252.641 62.6607C249.774 58.4992 243.38 57.1079 236.998 57.1079C222.362 57.1079 209.861 68.1933 207.426 83.7435C206.16 91.5004 207.96 98.9175 212.36 104.09C216.396 108.846 222.171 110.828 229.043 110.828C240.836 110.828 247.375 103.245 247.375 103.245L246.785 106.925C246.732 107.254 246.752 107.591 246.842 107.912C246.932 108.232 247.09 108.53 247.306 108.784C247.522 109.037 247.791 109.241 248.093 109.381C248.395 109.521 248.725 109.594 249.058 109.594H260.988C261.905 109.595 262.791 109.268 263.487 108.672C264.184 108.077 264.644 107.252 264.786 106.347L271.944 61.0147C271.997 60.6864 271.978 60.3505 271.888 60.0304C271.798 59.7102 271.64 59.4134 271.424 59.1603C271.208 58.9073 270.94 58.7041 270.638 58.5648C270.337 58.4255 270.008 58.3535 269.675 58.3536ZM251.213 84.1317C249.935 91.6985 243.93 96.7781 236.27 96.7781C232.424 96.7781 229.35 95.5446 227.376 93.207C225.419 90.8856 224.675 87.5815 225.298 83.9012C226.491 76.3991 232.598 71.1537 240.14 71.1537C243.901 71.1537 246.959 72.4033 248.973 74.7611C250.991 77.1432 251.792 80.4676 251.213 84.1317ZM340.216 58.3536H326.906C326.278 58.3545 325.66 58.5087 325.106 58.8026C324.551 59.0964 324.076 59.5212 323.723 60.04L305.366 87.08L297.585 61.0956C297.346 60.3031 296.858 59.6085 296.194 59.1147C295.53 58.6208 294.724 58.354 293.897 58.3536H280.817C280.45 58.3526 280.088 58.4393 279.761 58.6065C279.434 58.7737 279.152 59.0166 278.938 59.3149C278.724 59.6132 278.585 59.9583 278.531 60.3215C278.477 60.6847 278.511 61.0554 278.629 61.4029L293.29 104.426L279.507 123.883C279.262 124.228 279.117 124.633 279.087 125.056C279.057 125.478 279.144 125.9 279.339 126.276C279.533 126.651 279.827 126.967 280.188 127.187C280.55 127.407 280.965 127.523 281.388 127.523H294.681C295.302 127.523 295.913 127.374 296.464 127.086C297.014 126.799 297.486 126.383 297.84 125.873L342.108 61.9732C342.348 61.6275 342.489 61.2227 342.515 60.8027C342.541 60.3827 342.452 59.9635 342.257 59.5906C342.062 59.2177 341.769 58.9053 341.409 58.6872C341.049 58.4691 340.636 58.3538 340.216 58.3536Z" fill="#253B80"/>
<path d="M384.281 32.7697H356.619C355.704 32.7701 354.819 33.097 354.123 33.6915C353.428 34.2861 352.968 35.1094 352.825 36.0132L341.639 106.937C341.587 107.266 341.606 107.602 341.697 107.922C341.787 108.242 341.946 108.539 342.162 108.792C342.378 109.045 342.646 109.248 342.948 109.387C343.25 109.526 343.579 109.599 343.912 109.599H358.107C358.747 109.598 359.366 109.368 359.853 108.952C360.339 108.535 360.661 107.958 360.76 107.326L363.935 87.2217C364.076 86.3171 364.536 85.4929 365.232 84.8975C365.927 84.3021 366.813 83.9747 367.728 83.9741H376.48C394.704 83.9741 405.215 75.1576 407.965 57.6864C409.206 50.0427 408.013 44.037 404.434 39.831C400.507 35.2124 393.539 32.7697 384.281 32.7697ZM387.472 58.6732C385.964 68.5978 378.381 68.5978 371.045 68.5978H366.875L369.807 50.0629C369.891 49.5207 370.166 49.0264 370.583 48.6696C371 48.3128 371.531 48.117 372.08 48.1177H373.993C378.983 48.1177 383.699 48.1177 386.134 50.9648C387.586 52.6634 388.026 55.187 387.472 58.6732ZM466.954 58.3537H453.717C453.168 58.3522 452.637 58.5477 452.22 58.9046C451.803 59.2616 451.528 59.7564 451.445 60.299L450.858 64.0035L449.928 62.6608C447.061 58.4993 440.671 57.1081 434.289 57.1081C419.653 57.1081 407.156 68.1934 404.721 83.7436C403.459 91.5005 405.251 98.9177 409.651 104.09C413.695 108.846 419.462 110.828 426.334 110.828C438.127 110.828 444.666 103.245 444.666 103.245L444.076 106.925C444.023 107.255 444.043 107.592 444.133 107.914C444.224 108.235 444.383 108.533 444.6 108.787C444.817 109.041 445.086 109.244 445.389 109.384C445.693 109.523 446.023 109.595 446.357 109.595H458.283C459.199 109.594 460.084 109.267 460.78 108.671C461.475 108.076 461.935 107.252 462.077 106.347L469.239 61.0148C469.29 60.6855 469.269 60.349 469.177 60.0286C469.086 59.7082 468.926 59.4114 468.709 59.1586C468.492 58.9058 468.223 58.7029 467.92 58.564C467.617 58.425 467.288 58.3533 466.954 58.3537ZM448.492 84.1318C447.222 91.6987 441.209 96.7783 433.549 96.7783C429.711 96.7783 426.629 95.5448 424.655 93.2072C422.698 90.8858 421.962 87.5816 422.577 83.9013C423.778 76.3992 429.876 71.1538 437.419 71.1538C441.18 71.1538 444.238 72.4035 446.252 74.7613C448.278 77.1434 449.079 80.4677 448.492 84.1318ZM482.569 34.715L471.217 106.937C471.165 107.266 471.185 107.602 471.275 107.922C471.365 108.242 471.524 108.539 471.74 108.792C471.956 109.045 472.224 109.248 472.526 109.387C472.829 109.526 473.157 109.599 473.49 109.599H484.903C486.8 109.599 488.409 108.224 488.7 106.351L499.895 35.4308C499.947 35.1021 499.927 34.766 499.837 34.4456C499.746 34.1253 499.588 33.8283 499.372 33.575C499.156 33.3218 498.888 33.1183 498.586 32.9786C498.284 32.8389 497.955 32.7662 497.622 32.7656H484.842C484.293 32.7676 483.763 32.9648 483.347 33.322C482.93 33.6792 482.655 34.173 482.569 34.715Z" fill="#179BD7"/>
<path d="M29.4941 123.381L31.6092 109.946L26.8977 109.837H4.39941L20.0345 10.7001C20.0811 10.3972 20.2349 10.1211 20.468 9.92213C20.7011 9.72318 20.998 9.61461 21.3044 9.61623H59.2397C71.8335 9.61623 80.5246 12.2369 85.0623 17.4095C87.1896 19.8361 88.5444 22.3718 89.1996 25.1624C89.8871 28.0904 89.8992 31.5887 89.2279 35.8554L89.1794 36.1668V38.9008L91.3066 40.1059C92.9306 40.9287 94.3904 42.0417 95.6138 43.3899C97.4337 45.4646 98.6106 48.1015 99.108 51.2277C99.6216 54.4429 99.4518 58.2687 98.6106 62.6002C97.64 67.5827 96.0708 71.9222 93.9516 75.4731C92.0818 78.6541 89.5678 81.4091 86.5708 83.5616C83.756 85.5595 80.4114 87.076 76.63 88.0467C72.9659 89.0011 68.7882 89.4824 64.206 89.4824H61.2537C59.1426 89.4824 57.0922 90.2427 55.4825 91.6056C53.8752 92.9831 52.8089 94.8863 52.4736 96.9764L52.2512 98.1856L48.5143 121.865L48.3444 122.734C48.2999 123.009 48.2231 123.147 48.1098 123.24C48.0001 123.33 47.8633 123.379 47.7216 123.381H29.4941Z" fill="#253B80"/>
<path d="M93.3206 36.4824C93.2074 37.2063 93.078 37.9464 92.9324 38.7068C87.9296 64.3919 70.8143 73.265 48.955 73.265H37.8252C35.152 73.265 32.8993 75.2063 32.4827 77.8431L26.7844 113.983L25.1707 124.227C25.1064 124.633 25.131 125.049 25.2426 125.445C25.3543 125.841 25.5505 126.208 25.8176 126.52C26.0847 126.833 26.4165 127.085 26.7901 127.257C27.1636 127.429 27.5701 127.519 27.9815 127.519H47.7215C50.0591 127.519 52.0449 125.82 52.4129 123.515L52.607 122.512L56.3237 98.9259L56.5623 97.6317C56.9263 95.3184 58.9161 93.6198 61.2537 93.6198H64.206C83.3313 93.6198 98.3032 85.8548 102.679 63.3849C104.507 53.9981 103.561 46.1603 98.7238 40.648C97.1907 38.9428 95.3598 37.5312 93.3206 36.4824Z" fill="#179BD7"/>
<path d="M88.087 34.3957C86.4897 33.9336 84.8647 33.573 83.2218 33.3159C79.9755 32.817 76.6947 32.5776 73.4104 32.6001H43.6769C42.5454 32.5992 41.4508 33.0032 40.5912 33.739C39.7315 34.4748 39.1634 35.4938 38.9896 36.612L32.6644 76.6745L32.4824 77.8433C32.6795 76.5679 33.3265 75.4052 34.3064 74.5655C35.2863 73.7258 36.5344 73.2645 37.8249 73.2652H48.9547C70.814 73.2652 87.9293 64.388 92.9321 38.7069C93.0817 37.9466 93.2071 37.2065 93.3203 36.4826C92.0002 35.7903 90.6244 35.2099 89.2073 34.7476C88.8358 34.6243 88.4623 34.507 88.087 34.3957Z" fill="#222D65"/>
<path d="M38.9896 36.6124C39.1619 35.4939 39.7297 34.4744 40.5898 33.739C41.4499 33.0035 42.5453 32.601 43.6769 32.6045H73.4104C76.9329 32.6045 80.2209 32.835 83.2217 33.3204C85.2524 33.6395 87.255 34.1168 89.2113 34.748C90.6875 35.2373 92.0585 35.8157 93.3243 36.483C94.8126 26.9911 93.3122 20.5283 88.18 14.6763C82.5221 8.23378 72.3103 5.47559 59.2433 5.47559H21.3081C18.6389 5.47559 16.3619 7.41683 15.9494 10.0577L0.148476 110.214C0.0748778 110.679 0.102879 111.154 0.230555 111.608C0.35823 112.061 0.582548 112.481 0.88808 112.839C1.19361 113.197 1.57311 113.485 2.00046 113.682C2.42781 113.88 2.89288 113.983 3.36367 113.983H26.784L32.6644 76.6749L38.9896 36.6124Z" fill="#253B80"/>
</svg>
