<svg width="331" height="400" viewBox="0 0 331 400" fill="none" xmlns="http://www.w3.org/2000/svg">
<path fill-rule="evenodd" clip-rule="evenodd" d="M322.687 362.527H327.046V399.378L300.4 371.487V398.007H295.919V360.78L322.687 388.797V362.527ZM197.445 362.527V385.059C197.445 389.043 196.323 392.28 194.08 394.773C191.717 397.511 188.48 398.756 184.371 398.756C180.512 398.756 177.277 397.511 174.908 394.773C172.546 392.28 171.421 389.043 171.421 385.059V362.527H175.907V383.565C175.907 390.911 178.645 394.649 184.371 394.649C190.221 394.649 193.086 390.911 193.086 383.565V362.527H197.445ZM211.139 362.527H232.428V366.636H223.963V398.009H219.73V366.636H211.139V362.527ZM203.421 362.527H207.902V398.009H203.421V362.527ZM164.203 362.527H169.058L153.62 400L138.183 362.527H143.039L153.622 388.797L164.203 362.527ZM287.702 380.328C287.702 384.311 286.332 387.674 283.471 390.537C280.856 393.276 277.495 394.646 273.632 394.646C269.773 394.646 266.412 393.276 263.551 390.537C260.686 387.672 259.318 384.311 259.318 380.328C259.318 376.345 260.562 372.982 263.301 370.243C266.04 367.382 269.527 366.012 273.632 366.012C277.741 366.012 281.102 367.382 283.717 370.243C286.334 372.982 287.702 376.343 287.702 380.328ZM286.708 367.256C282.975 363.645 278.615 361.778 273.634 361.778C268.53 361.778 264.175 363.645 260.438 367.256C256.829 370.865 254.96 375.224 254.96 380.326C254.96 385.553 256.831 389.913 260.438 393.522C264.049 397.009 268.406 398.754 273.634 398.754C278.742 398.754 283.221 397.009 286.708 393.522C290.319 389.913 292.186 385.553 292.186 380.326C292.188 375.224 290.321 370.865 286.708 367.256ZM253.966 362.527V366.636H245.623V398.009H241.142V366.636H232.678V362.527H253.966ZM48.0458 370.243C50.6607 372.982 51.905 376.345 51.905 380.328C51.905 384.311 50.5345 387.674 47.7978 390.537C45.059 393.276 41.6959 394.646 37.8367 394.646C33.9776 394.646 30.6166 393.276 27.7538 390.537C25.139 387.672 23.6466 384.311 23.6466 380.328C23.6466 376.345 25.015 372.982 27.6298 370.243C30.3686 367.382 33.7317 366.012 37.8389 366.012C41.946 366.012 45.4332 367.382 48.0458 370.243ZM50.9108 367.256C47.1757 363.645 42.8184 361.778 37.8389 361.778C32.7333 361.778 28.2541 363.645 24.767 367.256C21.0318 370.865 19.1653 375.224 19.1653 380.326C19.1653 385.553 21.034 389.913 24.767 393.522C28.2541 397.009 32.6114 398.754 37.8389 398.754C43.0685 398.754 47.4258 397.009 50.9108 393.522C54.646 389.913 56.3884 385.553 56.3884 380.326C56.3884 375.224 54.646 370.865 50.9108 367.256ZM64.4809 383.563C64.4809 390.909 67.3437 394.646 73.0715 394.646C78.6753 394.646 81.6621 390.909 81.6621 383.563V362.525H86.0194V385.057C86.0194 389.04 84.8991 392.277 82.5323 394.77C80.1676 397.509 76.9307 398.754 73.0715 398.754C69.0884 398.754 65.9754 397.509 63.6107 394.77C61.1199 392.277 60.0017 389.04 60.0017 385.057V362.525H64.483L64.4809 383.563ZM7.95775 362.527V394.024H18.789V398.007H3.60045V362.525H7.95775V362.527ZM114.652 377.091C120.628 379.454 123.493 382.941 123.493 387.672C123.493 390.909 122.372 393.522 120.132 395.641C118.015 397.757 115.4 398.756 112.287 398.756C109.424 398.756 106.934 397.883 104.819 395.891C102.826 394.024 101.582 391.657 101.208 388.797L105.689 387.798C105.689 389.791 106.311 391.409 107.682 392.78C109.052 394.024 110.545 394.646 112.537 394.646C114.406 394.646 115.898 393.898 117.269 392.53C118.389 391.285 119.011 389.665 119.011 387.674C119.011 384.935 117.019 382.697 112.912 380.95L110.421 380.082C105.441 377.715 102.826 374.728 102.826 370.991C102.826 368.252 103.947 365.888 105.939 364.267C108.056 362.527 110.421 361.778 113.286 361.778C117.393 361.778 120.382 363.645 122.372 367.256L118.887 369.249C117.517 367.132 115.65 366.012 113.16 366.012C111.665 366.012 110.171 366.384 109.05 367.256C107.806 368.25 107.182 369.499 107.182 370.989C107.182 373.106 108.8 374.726 112.285 375.971L114.652 377.091ZM91.9952 362.527H96.4787V398.009H91.9952V362.527ZM266.82 41.7835L180.952 244.45L157.263 192.468L201.02 73.3687C204.31 64.158 215.824 59.8798 235.237 59.8798L242.143 41.7835H140.154L133.574 59.8798C148.05 59.8798 153.972 64.1559 151.668 73.3687L129.956 133.905L87.1868 41.7835C79.291 31.9144 83.2378 26.9777 98.7022 26.9777V5.59523H0V26.9798C18.4256 26.9798 29.9389 31.9165 34.8756 41.7857L107.256 195.76L73.3687 286.235C72.708 298.407 53.6282 304.334 16.7793 304.334L9.87129 322.428H291.495L330.647 239.19H310.248C291.168 282.289 269.125 304.334 244.45 304.334H115.15L134.232 253.337L150.682 286.235H187.531L291.493 41.7878C296.43 26.982 309.262 19.0883 329.33 19.0883V0H244.448V19.0841C270.11 19.0841 277.35 26.9798 266.82 41.7835Z" fill="black"/>
</svg>
