<svg width="414" height="400" viewBox="0 0 414 400" fill="none" xmlns="http://www.w3.org/2000/svg">
<path d="M200.204 5.4C185.804 21 167.404 59.6 159.204 92C155.604 106.6 153.204 168 156.404 168H209.204L259.604 168.2L259.404 136.6C259.204 103.6 257.604 94 247.604 65.6C237.404 37 215.004 0 208.004 0C206.604 0 203.004 2.4 200.204 5.4ZM3.20376 96.8C4.40376 115.6 9.20376 134.2 18.2038 155C21.0038 161.6 23.6038 167.2 23.8038 167.6C24.4038 168.6 144.604 169.2 144.604 168.2C144.604 166 132.404 151.4 118.804 137.4C91.4038 109 46.8038 84.8 14.0038 80.2L2.00376 78.6L3.20376 96.8ZM400.204 80C372.404 84.8 331.804 105 307.204 126.6C299.204 133.6 270.604 165.8 270.604 167.8C270.604 168.4 297.404 168.8 330.004 168.6L389.604 168.2L394.204 160C403.804 143.4 411.004 118.2 412.004 97.4C412.604 86.6 412.404 78.2 411.404 78.2C410.404 78.4 405.404 79.2 400.204 80ZM34.6038 187.8C34.6038 188.6 36.4038 191.8 38.8038 194.8L43.0038 200L208.004 199.6L373.004 199L378.204 192.4L383.204 186H208.804C112.204 186 34.6038 186.8 34.6038 187.8ZM61.8038 222.4C63.8038 225 67.0038 228 68.6038 229.4C72.6038 232.6 338.004 233.2 345.004 229.8C347.604 228.6 351.204 225.6 353.204 222.8L356.804 218H58.0038L61.8038 222.4ZM100.604 252.4C112.404 262.4 162.204 282 176.004 282C178.004 282 178.604 278.4 178.604 268.2C178.604 246.4 182.004 248 135.804 248L95.6038 248.2L100.604 252.4ZM187.004 256.4C189.404 261.2 195.004 269.2 199.204 274.6C208.404 285.6 208.404 285.6 221.404 267.2C235.604 247 236.404 248 207.404 248H182.404L187.004 256.4ZM237.804 254.2C237.204 257.6 236.604 265.4 236.604 271.4V282.4L244.204 281.2C266.404 277.2 300.804 263 314.604 252L319.604 248H239.204L237.804 254.2ZM138.404 305.4C138.404 306.4 138.404 312.8 138.604 319.8L138.804 332.6L133.204 331.2C130.204 330.4 126.004 329.4 124.204 328.8C121.204 328 120.604 329 120.604 335.8C120.604 342.6 121.404 344.2 125.204 345C131.604 346.8 137.604 355.8 137.604 364.4C137.604 372.2 132.604 379.2 125.204 382.2C121.404 383.6 120.604 385.4 120.604 391.8V399.8L129.004 396.8C134.604 394.8 137.804 394.6 138.204 396C138.604 397 142.404 398 146.804 398H154.604V304H146.604C142.204 304 138.604 304.6 138.404 305.4ZM246.604 318.2C246.604 332 246.404 332.4 242.204 331.2C227.604 327.2 228.604 326.8 228.604 335.6C228.604 341.8 229.604 344 232.204 344.8C245.004 349 249.804 367.2 240.804 376.8C238.204 379.6 234.404 382.4 232.204 383.2C229.604 384 228.604 386.2 228.604 392.2C228.604 396.4 229.004 400 229.604 400C230.204 400 234.004 398.6 238.204 397C243.004 395 245.804 394.6 246.204 396C246.604 397 250.404 398 254.804 398H262.604V304H246.604V318.2ZM19.0038 332.2C7.60376 337.8 -0.196241 351 0.00375864 364C0.203759 379.2 8.40376 390.8 23.2038 397L30.6038 400V391C30.6038 386 29.6038 382 28.6038 382C27.4038 382 24.2038 379.8 21.6038 377C17.8038 373.4 16.6038 370 16.6038 363.8C16.6038 356.8 17.8038 354.4 23.6038 348.8C29.0038 343.8 30.6038 340.6 30.6038 335.2C30.6038 331.2 30.0038 328 29.2038 328C28.2038 328 23.8038 330 19.0038 332.2ZM38.6038 335.8C38.6038 342 39.4038 344 41.8038 344C43.4038 344 47.6038 346.6 50.8038 349.8C61.0038 360.2 57.0038 379.4 43.8038 382.8C39.8038 383.8 39.2038 385 39.8038 390.4C40.0038 394 40.4038 397.6 40.4038 398.4C40.6038 399.2 44.4038 398.4 49.0038 396.8C54.6038 394.8 57.8038 394.6 58.2038 396C58.6038 397 62.0038 398 65.8038 398H72.6038V328H65.6038C61.8038 328 58.6038 329 58.6038 330.2C58.6038 331.6 56.6038 332 53.6038 331.2C50.8038 330.6 46.4038 329.4 43.6038 328.8C38.8038 327.6 38.6038 328 38.6038 335.8ZM100.604 331.8C78.4038 343.6 74.0038 372.6 92.2038 389.6C96.0038 393 102.004 396.8 105.404 397.6C111.404 399.2 111.604 399 112.204 392.2C112.804 387.2 111.804 384.4 109.204 382.6C101.004 376.6 98.6038 373.8 97.4038 369C95.6038 361.4 98.2038 354 105.204 347.2C110.404 342.2 111.404 339.6 111.004 334.4C110.204 327 109.804 326.8 100.604 331.8ZM164.404 360C164.204 377.6 164.004 393.2 163.804 394.4C163.604 396 166.804 397.2 172.204 397.6L180.604 398.2V328H164.604L164.404 360ZM208.804 331.6C205.004 333.4 199.204 338.4 195.804 342.6C190.404 349.4 189.804 351.6 189.804 363.8C190.004 372.8 191.204 379 193.404 382.4C197.204 388.2 209.204 396.8 216.204 399C220.204 400.2 220.604 399.6 220.604 392.6C220.604 386.4 219.404 384 213.604 379.4C205.004 372.6 202.804 363.2 207.604 354C209.404 350.4 212.604 347 214.804 346.6C217.804 345.8 218.604 343.8 218.604 336.8C218.604 332 218.004 328 217.204 328C216.204 328 212.604 329.6 208.804 331.6ZM286.204 333.8C272.404 342.6 266.804 356 270.204 371.6C273.404 385.2 282.604 394.2 298.204 399C302.204 400.2 302.604 399.6 302.604 392.2C302.604 385.2 301.804 383.6 296.404 381C289.204 377.2 284.604 367.4 286.004 359.4C287.004 354.6 296.804 344 300.404 344C301.204 344 301.804 340.4 301.804 336C301.804 326 299.004 325.6 286.204 333.8ZM310.604 336C310.604 342.8 311.404 344.4 315.604 346C322.204 348.4 327.004 359.6 325.204 368C324.604 371.8 321.404 376.4 317.404 379.6C311.804 384 310.604 386.4 310.604 392.6V400L318.004 397C322.804 395 325.804 394.6 326.204 396C326.604 397 330.404 398 334.804 398H342.604V328H336.804C333.604 328 329.604 329.4 328.004 331C325.204 333.6 324.204 333.6 319.204 331C311.204 326.8 310.604 327 310.604 336ZM365.604 330.8C352.604 336.4 348.204 354 357.604 362.8C362.804 367.6 374.804 372 383.004 372C389.604 372 395.204 376.4 394.204 381.2C393.804 384.2 391.604 385.2 383.004 385.6C373.604 386.2 372.404 385.8 370.204 381.2C368.404 376.8 366.604 376 359.204 376C349.404 376 348.804 377.6 354.604 387C359.604 395.2 368.604 399 382.604 399C401.804 399 413.404 390.6 413.004 377.2C412.604 364.6 404.404 357.8 385.804 355C368.004 352.2 363.804 342.2 380.204 341.4C386.804 341.2 389.204 342 391.804 345.6C394.004 348.8 396.804 350 402.804 350C411.804 350 412.404 348.2 406.404 339.6C398.604 328.8 379.604 324.8 365.604 330.8Z" fill="black"/>
</svg>
